<?xml version="1.0" standalone="no"?>
<!DOCTYPE svg PUBLIC "-//W3C//DTD SVG 20010904//EN"
 "http://www.w3.org/TR/2001/REC-SVG-20010904/DTD/svg10.dtd">
<svg version="1.0" xmlns="http://www.w3.org/2000/svg"
 width="2304.000000pt" height="2304.000000pt" viewBox="0 0 2304.000000 2304.000000"
 preserveAspectRatio="xMidYMid meet">
<metadata>
Created by potrace 1.11, written by Peter Selinger 2001-2013
</metadata>
<g transform="translate(0.000000,2304.000000) scale(0.100000,-0.100000)"
fill="#000000" stroke="none">
<path d="M3840 23033 c-19 -1 -87 -8 -150 -14 -339 -31 -729 -127 -1075 -262
-179 -70 -523 -245 -683 -347 -650 -414 -1163 -980 -1500 -1655 -208 -417
-332 -821 -404 -1315 l-23 -155 -3 -7685 c-3 -8422 -7 -7815 54 -8170 175
-1024 746 -1960 1580 -2592 596 -452 1275 -723 2039 -815 144 -17 480 -18
7845 -18 7370 0 7701 1 7840 18 527 66 950 191 1390 412 417 209 738 442 1075
780 331 330 554 635 761 1040 240 467 377 933 436 1480 11 97 13 1570 13 7795
0 7344 -1 7681 -18 7825 -85 700 -296 1280 -672 1845 -154 231 -296 402 -519
626 -229 228 -396 367 -641 529 -545 360 -1072 557 -1760 658 l-150 21 -7700
2 c-4235 0 -7716 -1 -7735 -3z m7681 -2853 c362 -37 722 -188 1004 -421 39
-31 1823 -1811 3965 -3953 l3895 -3896 -690 -691 c-380 -380 -724 -718 -765
-751 -647 -527 -1539 -568 -2235 -104 -119 79 -160 120 -4062 4015 -2169 2164
-3943 3938 -3943 3941 0 16 1417 1416 1490 1473 389 299 861 435 1341 387z
m-1842 -4015 c287 -433 383 -937 276 -1441 -62 -293 -201 -576 -397 -809 -42
-49 -506 -520 -1032 -1045 -526 -525 -956 -959 -956 -965 0 -5 1174 -1184
2608 -2620 2876 -2878 2676 -2668 2815 -2946 119 -235 177 -441 199 -706 38
-467 -114 -948 -420 -1323 -33 -41 -371 -385 -751 -765 l-691 -690 -1435 1435
-1435 1435 432 432 433 433 1003 -1002 1002 -1003 268 270 c244 246 271 277
305 345 49 102 70 187 70 295 0 107 -20 192 -69 295 -36 74 -82 121 -3055
3095 l-3019 3020 1391 1390 c765 765 1411 1418 1436 1453 149 206 157 504 20
714 -19 29 -151 169 -294 311 l-258 257 -1861 -1862 c-1438 -1440 -1869 -1877
-1897 -1923 -115 -194 -125 -422 -26 -625 l41 -85 814 -815 814 -815 -433
-433 -432 -432 -831 832 c-573 573 -851 859 -894 918 -205 279 -320 577 -361
930 -14 128 -7 367 17 500 52 301 180 591 369 836 45 59 852 873 2374 2397
l2306 2307 741 -742 c689 -691 746 -751 813 -853z m1879 -4533 c308 -469 395
-999 252 -1537 -52 -196 -132 -372 -248 -546 -82 -122 -174 -228 -341 -394
l-121 -120 -432 432 -433 433 146 147 c80 82 159 171 177 198 97 156 124 370
66 541 -42 126 -68 159 -343 437 -146 147 -270 267 -276 267 -5 0 -162 -152
-347 -337 l-338 -338 -433 433 -432 432 775 775 775 775 736 -737 c716 -718
739 -741 817 -861z m-4195 -1920 l427 -427 -721 -720 c-396 -396 -742 -747
-768 -780 -149 -186 -187 -423 -101 -642 42 -110 98 -177 359 -438 l241 -240
953 953 952 952 433 -433 432 -432 -1385 -1385 -1385 -1385 -676 675 c-372
371 -710 716 -752 765 -254 302 -399 656 -433 1063 -32 366 62 773 251 1089
121 201 167 251 959 1046 421 422 770 767 776 767 5 0 202 -192 438 -428z"/>
<path d="M11223 18960 c-74 -14 -173 -53 -240 -96 -55 -35 -566 -531 -561
-545 2 -3 1567 -1567 3478 -3476 3294 -3290 3479 -3472 3546 -3506 198 -100
420 -96 614 10 51 28 121 92 330 299 l265 264 -3475 3474 c-3413 3412 -3476
3474 -3550 3510 -41 20 -100 43 -130 51 -71 19 -211 27 -277 15z"/>
</g>
</svg>
