<svg xmlns="http://www.w3.org/2000/svg" xmlns:xlink="http://www.w3.org/1999/xlink" viewBox="0 0 1920 540"><defs><style>.cls-1{fill:none;}.cls-2{fill:#0c0924;}.cls-3{fill:#1168cb;}.cls-4{fill:#bbdfff;}.cls-5{fill:#0c49ac;}.cls-6{clip-path:url(#clip-path);}.cls-7{fill:url(#linear-gradient);}.cls-8{fill:url(#linear-gradient-2);}.cls-9{fill:url(#linear-gradient-3);}.cls-10{fill:url(#linear-gradient-4);}.cls-11{fill:url(#linear-gradient-5);}.cls-12{fill:url(#linear-gradient-6);}.cls-13{fill:url(#linear-gradient-7);}.cls-14{fill:url(#linear-gradient-8);}.cls-15{fill:url(#linear-gradient-9);}.cls-16{fill:url(#linear-gradient-10);}.cls-17{fill:url(#linear-gradient-11);}.cls-18{fill:url(#linear-gradient-12);}.cls-19{fill:url(#linear-gradient-13);}.cls-20{fill:url(#linear-gradient-14);}.cls-21{fill:url(#linear-gradient-15);}.cls-22{fill:url(#linear-gradient-16);}.cls-23{fill:url(#linear-gradient-17);}.cls-24{fill:url(#linear-gradient-18);}</style><clipPath id="clip-path"><rect class="cls-1" width="1920" height="540"/></clipPath><linearGradient id="linear-gradient" x1="983.11" y1="176.93" x2="420.79" y2="176.93" gradientUnits="userSpaceOnUse"><stop offset="0" stop-color="#003684"/><stop offset="0.89" stop-color="#158cf0"/></linearGradient><linearGradient id="linear-gradient-2" x1="298.45" y1="685.29" x2="634.07" y2="76.07" gradientUnits="userSpaceOnUse"><stop offset="0.39" stop-color="#1168cb" stop-opacity="0"/><stop offset="0.71" stop-color="#0c49ac"/></linearGradient><linearGradient id="linear-gradient-3" x1="1048.73" y1="1104.84" x2="845.89" y2="437.78" gradientUnits="userSpaceOnUse"><stop offset="0.41" stop-color="#0c0924"/><stop offset="0.89" stop-color="#0c49ac"/></linearGradient><linearGradient id="linear-gradient-4" x1="561" y1="626.42" x2="561" y2="199.36" gradientUnits="userSpaceOnUse"><stop offset="0" stop-color="#1168cb" stop-opacity="0"/><stop offset="0.83" stop-color="#1168cb"/></linearGradient><linearGradient id="linear-gradient-5" x1="613.36" y1="290.27" x2="613.36" y2="-38.8" gradientUnits="userSpaceOnUse"><stop offset="0.31" stop-color="#1168cb" stop-opacity="0"/><stop offset="0.89" stop-color="#0c49ac"/></linearGradient><linearGradient id="linear-gradient-6" x1="745.02" y1="930.95" x2="745.02" y2="88.3" gradientUnits="userSpaceOnUse"><stop offset="0.55" stop-color="#1168cb" stop-opacity="0"/><stop offset="1" stop-color="#0c49ac"/></linearGradient><linearGradient id="linear-gradient-7" x1="661.92" y1="881.29" x2="1018.28" y2="445.09" gradientUnits="userSpaceOnUse"><stop offset="0.19" stop-color="#0c0924"/><stop offset="0.75" stop-color="#0c49ac"/></linearGradient><linearGradient id="linear-gradient-8" x1="738.47" y1="223.29" x2="738.47" y2="-89.62" gradientUnits="userSpaceOnUse"><stop offset="0" stop-color="#0c0924"/><stop offset="0.89" stop-color="#0c49ac"/></linearGradient><linearGradient id="linear-gradient-9" x1="1056.82" y1="90.94" x2="867.14" y2="90.94" gradientUnits="userSpaceOnUse"><stop offset="0" stop-color="#0c49ac"/><stop offset="0.89" stop-color="#158cf0"/></linearGradient><linearGradient id="linear-gradient-10" x1="1071.1" y1="367.8" x2="996.19" y2="121.34" gradientUnits="userSpaceOnUse"><stop offset="0.25" stop-color="#0c0924"/><stop offset="0.92" stop-color="#0c49ac"/></linearGradient><linearGradient id="linear-gradient-11" x1="832.97" y1="246.61" x2="984.07" y2="67.47" gradientUnits="userSpaceOnUse"><stop offset="0.29" stop-color="#0c0924"/><stop offset="0.82" stop-color="#0c49ac"/></linearGradient><linearGradient id="linear-gradient-12" x1="930.96" y1="352.75" x2="1057.41" y2="172.22" xlink:href="#linear-gradient-11"/><linearGradient id="linear-gradient-13" x1="934.1" y1="294.63" x2="934.1" y2="70.83" gradientUnits="userSpaceOnUse"><stop offset="0.31" stop-color="#0c0924"/><stop offset="0.89" stop-color="#0c49ac"/></linearGradient><linearGradient id="linear-gradient-14" x1="970.94" y1="276.86" x2="970.94" y2="70.83" gradientUnits="userSpaceOnUse"><stop offset="0.55" stop-color="#0c0924"/><stop offset="1" stop-color="#0c49ac"/></linearGradient><linearGradient id="linear-gradient-15" x1="390.05" y1="253.32" x2="133.01" y2="253.32" xlink:href="#linear-gradient"/><linearGradient id="linear-gradient-16" x1="100.88" y1="631.55" x2="318.39" y2="239.11" gradientUnits="userSpaceOnUse"><stop offset="0.21" stop-color="#0c0924"/><stop offset="0.65" stop-color="#0c49ac"/></linearGradient><linearGradient id="linear-gradient-17" x1="246.25" y1="340.66" x2="246.25" y2="184.8" gradientUnits="userSpaceOnUse"><stop offset="0.21" stop-color="#0c0924"/><stop offset="1" stop-color="#0c49ac"/></linearGradient><linearGradient id="linear-gradient-18" x1="362.69" y1="657.36" x2="243.2" y2="219.82" xlink:href="#linear-gradient-10"/></defs><g id="Layer_2" data-name="Layer 2"><polygon class="cls-2" points="1920 0 1920 451.72 1862.25 483.08 1831.72 540 0 540 0 88.28 57.75 56.92 88.28 0 1920 0"/></g><g id="Layer_1" data-name="Layer 1"><path class="cls-3" d="M1157.84,249V182.63h41.75V194h-29.22v16h26.94v11.39h-26.94V249Z"/><path class="cls-3" d="M1205.24,249V202H1217v5.32h1.71a7.5,7.5,0,0,1,3.46-4.18,11.65,11.65,0,0,1,5.65-1.33h5.69v10.63h-5.88a11.43,11.43,0,0,0-7.5,2.42c-2,1.61-2.94,4.1-2.94,7.45V249Z"/><path class="cls-3" d="M1254.6,250.37a22.15,22.15,0,0,1-9-1.75,14.62,14.62,0,0,1-6.31-5.13,14.07,14.07,0,0,1-2.33-8.2,13.64,13.64,0,0,1,2.33-8.11,14.15,14.15,0,0,1,6.45-4.94,25.27,25.27,0,0,1,9.44-1.66h12.9v-2.66a7.47,7.47,0,0,0-2.08-5.45c-1.4-1.42-3.61-2.14-6.64-2.14s-5.19.68-6.65,2a9.68,9.68,0,0,0-2.84,5.27l-11-3.7a19.2,19.2,0,0,1,3.65-6.59,18.08,18.08,0,0,1,6.74-4.84,25.5,25.5,0,0,1,10.3-1.85q9.29,0,14.7,4.65t5.41,13.47v17.55c0,1.9.89,2.85,2.66,2.85h3.79V249h-8a9.38,9.38,0,0,1-5.79-1.7,5.43,5.43,0,0,1-2.27-4.56v-.09h-1.81a12.44,12.44,0,0,1-1.7,3,11.21,11.21,0,0,1-4.18,3.27A17.61,17.61,0,0,1,1254.6,250.37Zm2.09-9.67a12,12,0,0,0,8.21-2.8,9.47,9.47,0,0,0,3.17-7.45v-.95h-12a8.48,8.48,0,0,0-5.21,1.42,4.69,4.69,0,0,0-1.9,4,5.1,5.1,0,0,0,2,4.17A9,9,0,0,0,1256.69,240.7Z"/><path class="cls-3" d="M1293.42,249V202h11.76v5.13h1.71A10.79,10.79,0,0,1,1311,203a14.12,14.12,0,0,1,7.49-1.75,14.85,14.85,0,0,1,8.07,1.94,13.12,13.12,0,0,1,4.65,5.08h1.7a13.9,13.9,0,0,1,4.56-5q2.94-2,8.35-2a16.82,16.82,0,0,1,7.92,1.85,13.84,13.84,0,0,1,5.69,5.59,18.81,18.81,0,0,1,2.14,9.44V249h-12V219q0-3.89-2-5.84a7.7,7.7,0,0,0-5.6-1.94,7.85,7.85,0,0,0-6.31,2.61c-1.48,1.74-2.23,4.22-2.23,7.45V249h-12V219c0-2.59-.67-4.54-2-5.84a7.72,7.72,0,0,0-5.6-1.94,7.84,7.84,0,0,0-6.31,2.61q-2.24,2.61-2.23,7.45V249Z"/><path class="cls-3" d="M1393.77,250.37a24.91,24.91,0,0,1-12.38-3,20.94,20.94,0,0,1-8.35-8.44,26.28,26.28,0,0,1-3-12.86V225a26.72,26.72,0,0,1,2.94-12.86,20.73,20.73,0,0,1,8.26-8.44,24.63,24.63,0,0,1,12.33-3,23,23,0,0,1,12.05,3.08,21.25,21.25,0,0,1,8,8.54,27,27,0,0,1,2.85,12.67V229h-34.26a10.64,10.64,0,0,0,3.61,7.87,12.1,12.1,0,0,0,8.35,3q5,0,7.4-2.19a15.25,15.25,0,0,0,3.6-4.83l9.78,5.12a30.62,30.62,0,0,1-3.85,5.36,20.71,20.71,0,0,1-6.68,4.93A24.24,24.24,0,0,1,1393.77,250.37Zm-11.48-30.26h22a9.39,9.39,0,0,0-3.27-6.55,13,13,0,0,0-15.23,0A10.6,10.6,0,0,0,1382.29,220.11Z"/><path class="cls-3" d="M1476.6,250.37q-12.52,0-19.93-6.88t-7.4-19.68V207.87q0-12.81,7.4-19.69t19.93-6.88q12.53,0,19.92,6.88t7.4,19.69v15.94q0,12.81-7.4,19.68T1476.6,250.37Zm0-11.19q7,0,10.91-4.08t3.89-10.91v-16.7q0-6.84-3.89-10.91t-10.91-4.08q-6.93,0-10.87,4.08t-3.93,10.91v16.7q0,6.83,3.93,10.91T1476.6,239.18Z"/><path class="cls-3" d="M1513.39,249V202h11.77v6.17h1.7a12.48,12.48,0,0,1,4.27-4.69q3.13-2.24,9.49-2.23a18.1,18.1,0,0,1,9.63,2.51,17.22,17.22,0,0,1,6.41,6.93,22.23,22.23,0,0,1,2.27,10.29V249h-12V221.91q0-5.31-2.61-8t-7.45-2.66a10.49,10.49,0,0,0-8.54,3.66q-3,3.65-3,10.2V249Z"/><path class="cls-3" d="M1591.16,250.37a24.91,24.91,0,0,1-12.38-3,21,21,0,0,1-8.35-8.44,26.39,26.39,0,0,1-3-12.86V225a26.72,26.72,0,0,1,2.94-12.86,20.79,20.79,0,0,1,8.26-8.44,24.63,24.63,0,0,1,12.33-3,23,23,0,0,1,12,3.08,21.12,21.12,0,0,1,8,8.54,27,27,0,0,1,2.85,12.67V229h-34.25a10.63,10.63,0,0,0,3.6,7.87,12.1,12.1,0,0,0,8.35,3q5,0,7.4-2.19a15.29,15.29,0,0,0,3.61-4.83l9.77,5.12a31,31,0,0,1-3.84,5.36,20.87,20.87,0,0,1-6.69,4.93A24.21,24.21,0,0,1,1591.16,250.37Zm-11.48-30.26h22a9.43,9.43,0,0,0-3.28-6.55,11.24,11.24,0,0,0-7.54-2.47,11.37,11.37,0,0,0-7.69,2.47A10.65,10.65,0,0,0,1579.68,220.11Z"/><path class="cls-3" d="M1180.9,343.58a31.62,31.62,0,0,1-13.57-2.75,21.56,21.56,0,0,1-9.2-7.87,22.16,22.16,0,0,1-3.32-12.34V318h12.33v2.65q0,6,3.7,9t10.06,3q6.45,0,9.63-2.56a8,8,0,0,0,3.18-6.55,6.33,6.33,0,0,0-1.57-4.46,11.31,11.31,0,0,0-4.55-2.8,57.33,57.33,0,0,0-7.26-2l-2.18-.47a55.15,55.15,0,0,1-11.72-3.85,18.27,18.27,0,0,1-7.49-6.12c-1.75-2.52-2.61-5.81-2.61-9.86a18.22,18.22,0,0,1,2.89-10.39,18.55,18.55,0,0,1,8.16-6.64,30.45,30.45,0,0,1,12.38-2.33,31.5,31.5,0,0,1,12.67,2.42,19.62,19.62,0,0,1,8.73,7.21,21.28,21.28,0,0,1,3.17,12V299H1192v-2.85a11.32,11.32,0,0,0-1.47-6.12,8.64,8.64,0,0,0-4.22-3.41,17.72,17.72,0,0,0-6.55-1.09q-5.68,0-8.4,2.13a7.05,7.05,0,0,0-2.7,5.84,6.78,6.78,0,0,0,1.28,4.17,9.5,9.5,0,0,0,3.84,2.85,33.9,33.9,0,0,0,6.55,2l2.18.48a61.28,61.28,0,0,1,12.38,3.89,20.51,20.51,0,0,1,8.21,6.26,16.05,16.05,0,0,1,2.94,10,18.73,18.73,0,0,1-3.08,10.67,20.58,20.58,0,0,1-8.73,7.21A31.51,31.51,0,0,1,1180.9,343.58Z"/><path class="cls-3" d="M1236.33,343.58a27.54,27.54,0,0,1-12.62-2.84,21.37,21.37,0,0,1-8.83-8.26,24.9,24.9,0,0,1-3.22-13V318a24.92,24.92,0,0,1,3.22-13,21.37,21.37,0,0,1,8.83-8.26,29.46,29.46,0,0,1,25.24,0,21.34,21.34,0,0,1,8.82,8.26,24.92,24.92,0,0,1,3.23,13v1.51a24.9,24.9,0,0,1-3.23,13,21.34,21.34,0,0,1-8.82,8.26A27.57,27.57,0,0,1,1236.33,343.58Zm0-10.62a12.45,12.45,0,0,0,9.11-3.56q3.6-3.56,3.6-10.2v-.95q0-6.64-3.56-10.2a13.49,13.49,0,0,0-18.26,0q-3.62,3.56-3.61,10.2v.95q0,6.65,3.61,10.2A12.44,12.44,0,0,0,1236.33,333Z"/><path class="cls-3" d="M1276.39,342.26v-37.2h-12V295.2h12v-8.73a10.46,10.46,0,0,1,2.89-7.74,10.19,10.19,0,0,1,7.54-2.89h12.34v9.87H1291c-1.77,0-2.66,1-2.66,2.84v6.65h12.33v9.86h-12.33v37.2Z"/><path class="cls-3" d="M1329.4,342.26a10.2,10.2,0,0,1-7.54-2.9,10.45,10.45,0,0,1-2.89-7.73V305.06H1307.2V295.2H1319V280.58h12V295.2h12.91v9.86h-12.91v24.48c0,1.9.89,2.85,2.66,2.85h9.11v9.87Z"/><path class="cls-3" d="M1357.49,342.26l-6.65-47.06h11.87l4.17,39h1.71l6.07-39h19.17l6.07,39h1.71l4.17-39h11.86L1411,342.26h-19.83l-6.07-39h-1.71l-6.07,39Z"/><path class="cls-3" d="M1439.22,343.58a22.15,22.15,0,0,1-9-1.75,14.67,14.67,0,0,1-6.31-5.12,14.12,14.12,0,0,1-2.32-8.21,13.63,13.63,0,0,1,2.32-8.11,14.15,14.15,0,0,1,6.45-4.94,25.27,25.27,0,0,1,9.44-1.66h12.91v-2.66a7.47,7.47,0,0,0-2.09-5.45c-1.39-1.42-3.61-2.14-6.64-2.14s-5.19.69-6.64,2a9.67,9.67,0,0,0-2.85,5.27l-11-3.7a19.06,19.06,0,0,1,3.66-6.59,18,18,0,0,1,6.73-4.84,25.53,25.53,0,0,1,10.3-1.85q9.3,0,14.7,4.65t5.41,13.47v17.55c0,1.9.89,2.85,2.66,2.85h3.79v9.87h-8a9.35,9.35,0,0,1-5.78-1.71,5.42,5.42,0,0,1-2.28-4.56v-.09h-1.8a12.92,12.92,0,0,1-1.71,3,11.21,11.21,0,0,1-4.18,3.27A17.58,17.58,0,0,1,1439.22,343.58Zm2.09-9.67a12,12,0,0,0,8.21-2.8,9.44,9.44,0,0,0,3.18-7.45v-1h-12a8.5,8.5,0,0,0-5.22,1.42,4.69,4.69,0,0,0-1.9,4,5.13,5.13,0,0,0,2,4.17A9,9,0,0,0,1441.31,333.91Z"/><path class="cls-3" d="M1478,342.26V295.2h11.76v5.31h1.71a7.54,7.54,0,0,1,3.46-4.18,11.64,11.64,0,0,1,5.65-1.32h5.69v10.62h-5.88a11.38,11.38,0,0,0-7.49,2.42c-2,1.61-3,4.1-3,7.45v26.76Z"/><path class="cls-3" d="M1533.29,343.58a25,25,0,0,1-12.39-3,21.07,21.07,0,0,1-8.34-8.45,26.28,26.28,0,0,1-3-12.86v-1.13a26.72,26.72,0,0,1,2.94-12.86,20.76,20.76,0,0,1,8.25-8.44,24.67,24.67,0,0,1,12.34-3,23,23,0,0,1,12.05,3.08,21.25,21.25,0,0,1,8,8.54,27.11,27.11,0,0,1,2.84,12.67v4.08h-34.25a10.64,10.64,0,0,0,3.61,7.87,12.08,12.08,0,0,0,8.35,3c3.35,0,5.81-.73,7.4-2.19a15.25,15.25,0,0,0,3.6-4.83l9.77,5.12a29.65,29.65,0,0,1-3.84,5.36,20.76,20.76,0,0,1-6.69,4.93A24.16,24.16,0,0,1,1533.29,343.58Zm-11.48-30.26h22a9.43,9.43,0,0,0-3.28-6.55,13,13,0,0,0-15.22,0A10.6,10.6,0,0,0,1521.81,313.32Z"/><path class="cls-4" d="M1156,435.47v-11h8.73v-44.4H1156v-11h34.15a25.44,25.44,0,0,1,10.58,2,16.25,16.25,0,0,1,7,5.79,15.69,15.69,0,0,1,2.52,9v1a14.49,14.49,0,0,1-1.71,7.45,13.51,13.51,0,0,1-4,4.46,17.59,17.59,0,0,1-4.41,2.23v1.71a17.25,17.25,0,0,1,4.55,2.13,13.34,13.34,0,0,1,4.22,4.51,14.85,14.85,0,0,1,1.76,7.68v1a17,17,0,0,1-2.56,9.44,16.5,16.5,0,0,1-7.07,6,24.77,24.77,0,0,1-10.49,2.09Zm21.25-39.09h11.57a10,10,0,0,0,6.41-2,6.64,6.64,0,0,0,2.51-5.5v-.95a6.67,6.67,0,0,0-2.46-5.55,10.12,10.12,0,0,0-6.46-1.94H1177.2Zm0,27.7H1189a10.32,10.32,0,0,0,6.6-2,6.86,6.86,0,0,0,2.51-5.69v-.95a6.92,6.92,0,0,0-2.46-5.7,10.33,10.33,0,0,0-6.65-2H1177.2Z"/><path class="cls-4" d="M1241.74,436.79a27.38,27.38,0,0,1-12.62-2.84,21.31,21.31,0,0,1-8.83-8.26,24.9,24.9,0,0,1-3.22-13v-1.51a24.92,24.92,0,0,1,3.22-13,21.31,21.31,0,0,1,8.83-8.26,29.44,29.44,0,0,1,25.23,0,21.31,21.31,0,0,1,8.83,8.26,24.92,24.92,0,0,1,3.22,13v1.51a24.9,24.9,0,0,1-3.22,13,21.31,21.31,0,0,1-8.83,8.26A27.37,27.37,0,0,1,1241.74,436.79Zm0-10.62a12.43,12.43,0,0,0,9.1-3.56q3.62-3.56,3.61-10.2v-1q0-6.65-3.56-10.2a13.49,13.49,0,0,0-18.26,0q-3.62,3.56-3.61,10.2v1q0,6.64,3.61,10.2A12.44,12.44,0,0,0,1241.74,426.17Z"/><path class="cls-4" d="M1280.91,382.9a7.66,7.66,0,0,1-5.45-2.08,7.91,7.91,0,0,1,0-11,8.22,8.22,0,0,1,11,0,8,8,0,0,1,0,11A7.63,7.63,0,0,1,1280.91,382.9Zm-6,52.57V388.41h12v47.06Z"/><path class="cls-4" d="M1297.85,435.47V369.05h12v66.42Z"/><path class="cls-4" d="M1342.31,436.79a25,25,0,0,1-12.39-3,21.07,21.07,0,0,1-8.34-8.45,26.28,26.28,0,0,1-3-12.86v-1.13a26.72,26.72,0,0,1,2.94-12.86,20.76,20.76,0,0,1,8.25-8.44,24.65,24.65,0,0,1,12.34-3,23,23,0,0,1,12.05,3.08,21.25,21.25,0,0,1,8,8.54,27.11,27.11,0,0,1,2.84,12.67v4.08h-34.25a10.64,10.64,0,0,0,3.61,7.87,12.08,12.08,0,0,0,8.35,3c3.35,0,5.81-.73,7.4-2.18a15.4,15.4,0,0,0,3.6-4.84l9.77,5.12a29.65,29.65,0,0,1-3.84,5.36,20.73,20.73,0,0,1-6.69,4.93A24.16,24.16,0,0,1,1342.31,436.79Zm-11.48-30.26h22a9.43,9.43,0,0,0-3.28-6.55,13,13,0,0,0-15.22,0A10.6,10.6,0,0,0,1330.83,406.53Z"/><path class="cls-4" d="M1373.55,435.47V388.41h11.76v5.31H1387a7.54,7.54,0,0,1,3.46-4.18,11.64,11.64,0,0,1,5.65-1.32h5.69v10.62h-5.88a11.38,11.38,0,0,0-7.49,2.42c-2,1.61-3,4.1-3,7.45v26.76Z"/><path class="cls-4" d="M1409.13,454.44v-66h11.76v5.69h1.71a14.67,14.67,0,0,1,5-4.89c2.28-1.42,5.53-2.13,9.77-2.13a20.37,20.37,0,0,1,18.31,11,27.09,27.09,0,0,1,3,13.1v1.51a27.09,27.09,0,0,1-3,13.1,20.32,20.32,0,0,1-18.31,11,22.36,22.36,0,0,1-7.16-1,13.66,13.66,0,0,1-4.65-2.56,16.38,16.38,0,0,1-2.8-3.18h-1.71v24.38Zm24.67-28.08a12.73,12.73,0,0,0,9.25-3.56q3.65-3.56,3.65-10.39v-1q0-6.82-3.7-10.39a13.68,13.68,0,0,0-18.41,0q-3.69,3.56-3.7,10.39v1q0,6.82,3.7,10.39A12.79,12.79,0,0,0,1433.8,426.36Z"/><path class="cls-4" d="M1467.58,435.47V369.05h12v66.42Z"/><path class="cls-4" d="M1505.52,436.79a22.15,22.15,0,0,1-9-1.75,14.67,14.67,0,0,1-6.31-5.12,14.12,14.12,0,0,1-2.32-8.21,13.63,13.63,0,0,1,2.32-8.11,14.15,14.15,0,0,1,6.45-4.94,25.27,25.27,0,0,1,9.44-1.66H1519v-2.65a7.48,7.48,0,0,0-2.09-5.46c-1.39-1.42-3.61-2.14-6.64-2.14s-5.19.69-6.64,2a9.67,9.67,0,0,0-2.85,5.27l-11-3.7a19.06,19.06,0,0,1,3.66-6.59,18,18,0,0,1,6.73-4.84,25.53,25.53,0,0,1,10.3-1.85q9.3,0,14.7,4.65t5.41,13.47v17.55c0,1.9.89,2.85,2.66,2.85H1537v9.87h-8a9.33,9.33,0,0,1-5.78-1.71,5.42,5.42,0,0,1-2.28-4.56v-.09h-1.8a12.92,12.92,0,0,1-1.71,3,11.21,11.21,0,0,1-4.18,3.27A17.58,17.58,0,0,1,1505.52,436.79Zm2.09-9.67a12,12,0,0,0,8.21-2.8,9.44,9.44,0,0,0,3.18-7.45v-.95h-12a8.56,8.56,0,0,0-5.22,1.42,4.69,4.69,0,0,0-1.9,4,5.13,5.13,0,0,0,2,4.17A9,9,0,0,0,1507.61,427.12Z"/><path class="cls-4" d="M1560.17,435.47a10.2,10.2,0,0,1-7.54-2.9,10.43,10.43,0,0,1-2.89-7.73V398.27H1538v-9.86h11.77V373.79h12v14.62h12.91v9.86h-12.91v24.48c0,1.9.89,2.85,2.66,2.85h9.11v9.87Z"/><path class="cls-4" d="M1602.56,436.79a25,25,0,0,1-12.38-3,21.15,21.15,0,0,1-8.35-8.45,26.39,26.39,0,0,1-3-12.86v-1.13a26.72,26.72,0,0,1,3-12.86,20.76,20.76,0,0,1,8.25-8.44,24.65,24.65,0,0,1,12.34-3,22.94,22.94,0,0,1,12,3.08,21.12,21.12,0,0,1,8,8.54,27,27,0,0,1,2.85,12.67v4.08H1591a10.67,10.67,0,0,0,3.6,7.87,12.1,12.1,0,0,0,8.35,3c3.36,0,5.82-.73,7.4-2.18a15.43,15.43,0,0,0,3.61-4.84l9.77,5.12a29.65,29.65,0,0,1-3.84,5.36,20.73,20.73,0,0,1-6.69,4.93A24.18,24.18,0,0,1,1602.56,436.79Zm-11.48-30.26h22a9.43,9.43,0,0,0-3.28-6.55,11.24,11.24,0,0,0-7.54-2.47,11.37,11.37,0,0,0-7.69,2.47A10.7,10.7,0,0,0,1591.08,406.53Z"/><path class="cls-5" d="M239.25,0,184.8,54.45H85A30.56,30.56,0,0,0,54.45,85V184.8L0,239.25V85A85.07,85.07,0,0,1,85,0Z"/><path class="cls-5" d="M1680.75,540l54.45-54.45H1835A30.56,30.56,0,0,0,1865.55,455V355.2L1920,300.75V455a85.07,85.07,0,0,1-85,85Z"/><rect class="cls-3" x="1155.84" y="91.73" width="562.25" height="54.61"/><path class="cls-2" d="M1162.42,130.88V97.8H1176a11.59,11.59,0,0,1,5.5,1.26,9.26,9.26,0,0,1,3.74,3.52,10.43,10.43,0,0,1,1.34,5.38v.67a10.12,10.12,0,0,1-1.39,5.36,9.47,9.47,0,0,1-3.78,3.54,11.42,11.42,0,0,1-5.41,1.26h-7.37v12.09Zm6.24-17.77h6.75a5.16,5.16,0,0,0,3.59-1.22,4.27,4.27,0,0,0,1.38-3.36v-.47a4.27,4.27,0,0,0-1.38-3.36,5.21,5.21,0,0,0-3.59-1.22h-6.75Z"/><path class="cls-2" d="M1191.15,130.88V107.44H1197v2.65h.85a3.77,3.77,0,0,1,1.72-2.08,5.78,5.78,0,0,1,2.81-.66h2.84v5.29h-2.93a5.63,5.63,0,0,0-3.73,1.21,4.51,4.51,0,0,0-1.47,3.71v13.32Z"/><path class="cls-2" d="M1220.16,131.54a13.72,13.72,0,0,1-6.28-1.41,10.7,10.7,0,0,1-4.4-4.11,12.46,12.46,0,0,1-1.6-6.48v-.75a12.46,12.46,0,0,1,1.6-6.48,10.7,10.7,0,0,1,4.4-4.11,14.62,14.62,0,0,1,12.57,0,10.73,10.73,0,0,1,4.39,4.11,12.46,12.46,0,0,1,1.61,6.48v.75a12.46,12.46,0,0,1-1.61,6.48,10.73,10.73,0,0,1-4.39,4.11A13.76,13.76,0,0,1,1220.16,131.54Zm0-5.29a6.2,6.2,0,0,0,4.54-1.77,6.85,6.85,0,0,0,1.79-5.08v-.47a6.87,6.87,0,0,0-1.77-5.08,6.73,6.73,0,0,0-9.1,0,6.84,6.84,0,0,0-1.79,5.08v.47a6.85,6.85,0,0,0,1.79,5.08A6.2,6.2,0,0,0,1220.16,126.25Z"/><path class="cls-2" d="M1233.58,140.33v-5.1h3.12c.88,0,1.32-.47,1.32-1.42V107.44h6V135a5.23,5.23,0,0,1-1.42,3.85,5,5,0,0,1-3.78,1.44ZM1241,104.7a3.81,3.81,0,0,1-2.72-1,3.94,3.94,0,0,1,0-5.48,4.1,4.1,0,0,1,5.46,0,4,4,0,0,1,0,5.48A3.77,3.77,0,0,1,1241,104.7Z"/><path class="cls-2" d="M1261.27,131.54a12.42,12.42,0,0,1-6.16-1.48,10.53,10.53,0,0,1-4.16-4.21,13.16,13.16,0,0,1-1.49-6.4v-.57a13.35,13.35,0,0,1,1.46-6.4,10.38,10.38,0,0,1,4.12-4.21,12.32,12.32,0,0,1,6.14-1.49,11.44,11.44,0,0,1,6,1.54,10.57,10.57,0,0,1,4,4.25,13.52,13.52,0,0,1,1.42,6.31v2h-17.06a5.27,5.27,0,0,0,1.79,3.92,6,6,0,0,0,4.16,1.52,5.35,5.35,0,0,0,3.69-1.09,7.84,7.84,0,0,0,1.79-2.41l4.87,2.55a15.19,15.19,0,0,1-1.91,2.67,10.48,10.48,0,0,1-3.34,2.46A12,12,0,0,1,1261.27,131.54Zm-5.72-15.07h11a4.7,4.7,0,0,0-1.63-3.26,6.47,6.47,0,0,0-7.59,0A5.32,5.32,0,0,0,1255.55,116.47Z"/><path class="cls-2" d="M1288.87,131.54a13.37,13.37,0,0,1-6.17-1.41,10.74,10.74,0,0,1-4.37-4.11,12.54,12.54,0,0,1-1.61-6.53v-.66a12.53,12.53,0,0,1,1.61-6.52,10.74,10.74,0,0,1,4.37-4.11,13.38,13.38,0,0,1,6.17-1.42,13.06,13.06,0,0,1,5.76,1.18,10.33,10.33,0,0,1,3.9,3.24,11.2,11.2,0,0,1,2,4.66l-5.76,1.22a6.92,6.92,0,0,0-.85-2.55,4.88,4.88,0,0,0-1.87-1.79,6.17,6.17,0,0,0-3-.66,6.8,6.8,0,0,0-3.24.77,5.64,5.64,0,0,0-2.27,2.32,7.86,7.86,0,0,0-.82,3.76v.47a7.88,7.88,0,0,0,.82,3.76,5.56,5.56,0,0,0,2.27,2.31,6.69,6.69,0,0,0,3.24.78,5.55,5.55,0,0,0,4.09-1.39,6.52,6.52,0,0,0,1.77-3.66l5.76,1.37a13,13,0,0,1-2.1,4.56,10.21,10.21,0,0,1-3.9,3.23A12.92,12.92,0,0,1,1288.87,131.54Z"/><path class="cls-2" d="M1313.54,130.88a5.08,5.08,0,0,1-3.76-1.44,5.2,5.2,0,0,1-1.44-3.85V112.36h-5.86v-4.92h5.86v-7.27h6v7.27h6.43v4.92h-6.43v12.19c0,1,.44,1.42,1.32,1.42h4.54v4.91Z"/><path class="cls-2" d="M1349.12,131.54a13.37,13.37,0,0,1-6.17-1.41,10.74,10.74,0,0,1-4.37-4.11,12.54,12.54,0,0,1-1.61-6.53v-.66a12.53,12.53,0,0,1,1.61-6.52,10.74,10.74,0,0,1,4.37-4.11,13.38,13.38,0,0,1,6.17-1.42,13.09,13.09,0,0,1,5.76,1.18,10.33,10.33,0,0,1,3.9,3.24,11.34,11.34,0,0,1,2,4.66l-5.76,1.22a6.76,6.76,0,0,0-.86-2.55,4.78,4.78,0,0,0-1.86-1.79,6.19,6.19,0,0,0-3-.66,6.8,6.8,0,0,0-3.24.77,5.64,5.64,0,0,0-2.27,2.32,7.86,7.86,0,0,0-.82,3.76v.47a7.88,7.88,0,0,0,.82,3.76,5.56,5.56,0,0,0,2.27,2.31,6.69,6.69,0,0,0,3.24.78,5.51,5.51,0,0,0,4.08-1.39,6.6,6.6,0,0,0,1.78-3.66l5.76,1.37a13,13,0,0,1-2.1,4.56,10.21,10.21,0,0,1-3.9,3.23A13,13,0,0,1,1349.12,131.54Z"/><path class="cls-2" d="M1365.8,130.88V107.44h5.86v2.65h.85a3.73,3.73,0,0,1,1.72-2.08,5.75,5.75,0,0,1,2.81-.66h2.84v5.29H1377a5.68,5.68,0,0,0-3.74,1.21,4.54,4.54,0,0,0-1.46,3.71v13.32Z"/><path class="cls-2" d="M1394.34,131.54a12.49,12.49,0,0,1-6.17-1.48,10.53,10.53,0,0,1-4.16-4.21,13.16,13.16,0,0,1-1.49-6.4v-.57a13.24,13.24,0,0,1,1.47-6.4,10.35,10.35,0,0,1,4.11-4.21,12.32,12.32,0,0,1,6.14-1.49,11.44,11.44,0,0,1,6,1.54,10.44,10.44,0,0,1,4,4.25,13.4,13.4,0,0,1,1.42,6.31v2h-17.06a5.28,5.28,0,0,0,1.8,3.92,6,6,0,0,0,4.16,1.52,5.32,5.32,0,0,0,3.68-1.09,7.72,7.72,0,0,0,1.8-2.41l4.87,2.55a15.3,15.3,0,0,1-1.92,2.67,10.32,10.32,0,0,1-3.33,2.46A12,12,0,0,1,1394.34,131.54Zm-5.72-15.07h11a4.66,4.66,0,0,0-1.63-3.26,5.57,5.57,0,0,0-3.75-1.23,5.63,5.63,0,0,0-3.83,1.23A5.27,5.27,0,0,0,1388.62,116.47Z"/><path class="cls-2" d="M1418.2,131.54a11.1,11.1,0,0,1-4.49-.87,7.26,7.26,0,0,1-3.14-2.55,7,7,0,0,1-1.16-4.09,6.81,6.81,0,0,1,1.16-4,7,7,0,0,1,3.21-2.46,12.55,12.55,0,0,1,4.7-.82h6.43v-1.33a3.73,3.73,0,0,0-1-2.71,4.45,4.45,0,0,0-3.31-1.07,4.66,4.66,0,0,0-3.3,1,4.78,4.78,0,0,0-1.42,2.62l-5.48-1.84a9.53,9.53,0,0,1,1.82-3.29,9.07,9.07,0,0,1,3.35-2.41,12.82,12.82,0,0,1,5.13-.92,10.86,10.86,0,0,1,7.32,2.32,8.35,8.35,0,0,1,2.7,6.71v8.74c0,1,.44,1.42,1.32,1.42h1.89v4.91h-4A4.63,4.63,0,0,1,1427,130a2.69,2.69,0,0,1-1.14-2.27v0H1425a6.37,6.37,0,0,1-.85,1.48,5.58,5.58,0,0,1-2.08,1.63A8.7,8.7,0,0,1,1418.2,131.54Zm1-4.82a6,6,0,0,0,4.09-1.39,4.72,4.72,0,0,0,1.58-3.71v-.47h-6a4.2,4.2,0,0,0-2.6.71,2.32,2.32,0,0,0-.94,2,2.55,2.55,0,0,0,1,2.08A4.45,4.45,0,0,0,1419.24,126.72Z"/><path class="cls-2" d="M1445.8,130.88a5.08,5.08,0,0,1-3.76-1.44,5.2,5.2,0,0,1-1.44-3.85V112.36h-5.86v-4.92h5.86v-7.27h6v7.27H1453v4.92h-6.43v12.19c0,1,.44,1.42,1.33,1.42h4.53v4.91Z"/><path class="cls-2" d="M1468.2,131.54a12.46,12.46,0,0,1-6.17-1.48,10.53,10.53,0,0,1-4.16-4.21,13.16,13.16,0,0,1-1.49-6.4v-.57a13.24,13.24,0,0,1,1.47-6.4,10.29,10.29,0,0,1,4.11-4.21,12.32,12.32,0,0,1,6.14-1.49,11.44,11.44,0,0,1,6,1.54,10.5,10.5,0,0,1,4,4.25,13.4,13.4,0,0,1,1.42,6.31v2h-17.06a5.25,5.25,0,0,0,1.8,3.92,6,6,0,0,0,4.15,1.52,5.35,5.35,0,0,0,3.69-1.09,7.72,7.72,0,0,0,1.8-2.41l4.86,2.55a15.19,15.19,0,0,1-1.91,2.67,10.54,10.54,0,0,1-3.33,2.46A12,12,0,0,1,1468.2,131.54Zm-5.72-15.07h11a4.7,4.7,0,0,0-1.63-3.26,6.45,6.45,0,0,0-7.58,0A5.27,5.27,0,0,0,1462.48,116.47Z"/><path class="cls-2" d="M1494.23,131.54a10.31,10.31,0,0,1-5.22-1.39,10.2,10.2,0,0,1-3.9-4.09,13.42,13.42,0,0,1-1.46-6.52v-.75a13.46,13.46,0,0,1,1.46-6.53,10.19,10.19,0,0,1,9.12-5.48,11.08,11.08,0,0,1,3.57.5,7.37,7.37,0,0,1,2.34,1.25,5.94,5.94,0,0,1,1.37,1.61h.85V97.8h6v33.08h-5.86v-2.83h-.85a7.75,7.75,0,0,1-2.48,2.41A9.09,9.09,0,0,1,1494.23,131.54Zm1.8-5.19a6.33,6.33,0,0,0,4.58-1.78,6.83,6.83,0,0,0,1.84-5.17v-.47a6.88,6.88,0,0,0-1.82-5.18,6.85,6.85,0,0,0-9.19,0,6.85,6.85,0,0,0-1.84,5.18v.47a6.83,6.83,0,0,0,1.84,5.17A6.34,6.34,0,0,0,1496,126.35Z"/><path class="cls-2" d="M1528.82,130.88l-3.31-23.44h5.91l2.08,19.43h.85l3-19.43h9.55l3,19.43h.85l2.08-19.43h5.91l-3.31,23.44h-9.88l-3-19.42h-.85l-3,19.42Z"/><path class="cls-2" d="M1567,104.7a3.78,3.78,0,0,1-2.71-1,3.94,3.94,0,0,1,0-5.48,4.09,4.09,0,0,1,5.45,0,4,4,0,0,1,0,5.48A3.76,3.76,0,0,1,1567,104.7Zm-3,26.18V107.44h6v23.44Z"/><path class="cls-2" d="M1585.52,130.88a5.07,5.07,0,0,1-3.75-1.44,5.2,5.2,0,0,1-1.44-3.85V112.36h-5.86v-4.92h5.86v-7.27h6v7.27h6.43v4.92h-6.43v12.19c0,1,.44,1.42,1.32,1.42h4.54v4.91Z"/><path class="cls-2" d="M1598.09,130.88V97.8h6v12.53h.85a5.41,5.41,0,0,1,1.18-1.52,6.22,6.22,0,0,1,2.15-1.25,10.07,10.07,0,0,1,3.42-.49,9,9,0,0,1,4.8,1.25,8.51,8.51,0,0,1,3.19,3.45,11,11,0,0,1,1.13,5.13v14h-6V117.37a5.43,5.43,0,0,0-1.3-4,5,5,0,0,0-3.71-1.32,5.22,5.22,0,0,0-4.25,1.81,7.73,7.73,0,0,0-1.51,5.08v11.91Z"/><path class="cls-2" d="M1648.18,130.88a5.11,5.11,0,0,1-3.76-1.44,5.2,5.2,0,0,1-1.44-3.85V112.36h-5.86v-4.92H1643v-7.27h6v7.27h6.42v4.92h-6.42v12.19c0,1,.44,1.42,1.32,1.42h4.54v4.91Z"/><path class="cls-2" d="M1660.75,130.88V97.8h6v12.53h.85a5.65,5.65,0,0,1,1.19-1.52,6.22,6.22,0,0,1,2.15-1.25,10,10,0,0,1,3.42-.49,9,9,0,0,1,4.8,1.25,8.51,8.51,0,0,1,3.19,3.45,11.08,11.08,0,0,1,1.13,5.13v14h-6V117.37a5.47,5.47,0,0,0-1.3-4,5,5,0,0,0-3.71-1.32,5.2,5.2,0,0,0-4.25,1.81,7.74,7.74,0,0,0-1.52,5.08v11.91Z"/><path class="cls-2" d="M1700.54,131.54a12.49,12.49,0,0,1-6.17-1.48,10.6,10.6,0,0,1-4.16-4.21,13.16,13.16,0,0,1-1.49-6.4v-.57a13.24,13.24,0,0,1,1.47-6.4,10.41,10.41,0,0,1,4.11-4.21,12.32,12.32,0,0,1,6.14-1.49,11.44,11.44,0,0,1,6,1.54,10.44,10.44,0,0,1,4,4.25,13.4,13.4,0,0,1,1.42,6.31v2h-17.06a5.28,5.28,0,0,0,1.8,3.92,6,6,0,0,0,4.16,1.52,5.32,5.32,0,0,0,3.68-1.09,7.72,7.72,0,0,0,1.8-2.41l4.87,2.55a15.3,15.3,0,0,1-1.92,2.67,10.32,10.32,0,0,1-3.33,2.46A12,12,0,0,1,1700.54,131.54Zm-5.72-15.07h11a4.66,4.66,0,0,0-1.63-3.26,5.57,5.57,0,0,0-3.75-1.23,5.63,5.63,0,0,0-3.83,1.23A5.27,5.27,0,0,0,1694.82,116.47Z"/><circle class="cls-4" cx="1892.83" cy="257.1" r="27.17"/><g class="cls-6"><path class="cls-7" d="M983.11,443.33a103.3,103.3,0,0,1-30.35,73.27l-73.27,73.26L806.16,516.6l-85.84-85.84h0l48-48,85.84,85.83,25.21,25.3,25.3-25.3a35.69,35.69,0,0,0,0-50.42L574.9,88.3l48.05-48,.08.07L641.4,22l-.07-.07,73.49-73.42-.08-.07,12.8-12.72a35.84,35.84,0,0,0,3-47.15l-28.34-28.34L664.31-102,499.18,63.09a35.69,35.69,0,0,0,0,50.43l6.85,6.84,18.36,18.45,50.51,50.44L585,199.36,574.9,209.48,537,247.41l-12.58-12.58-48-48L458,168.41l-6.84-6.84a103.23,103.23,0,0,1-30.34-72.44V87.47A103.23,103.23,0,0,1,451.13,15L616.26-150.09,702.1-236l.07.07,78.62,78.63a103.34,103.34,0,0,1,25.13,67.68,103.3,103.3,0,0,1-30.34,73.27L762.79-3.55l.07.07-34.06,34L671,88.3l79,79,50.43,50.5,5.49,5.49,42.56,42.49L952.76,370.06A103.3,103.3,0,0,1,983.11,443.33Z"/><path class="cls-8" d="M537,247.41v379l-85.84,85.84a103.23,103.23,0,0,0-30.34,72.43V89.13a103.23,103.23,0,0,0,30.34,72.44l6.84,6.84,18.45,18.38,48,48Z"/><path class="cls-9" d="M983.11,443.33v697.22a103.3,103.3,0,0,0-30.35-73.27L879.49,994V589.86l73.27-73.26A103.3,103.3,0,0,0,983.11,443.33Z"/><polygon class="cls-10" points="585.02 199.36 585.02 578.37 536.97 626.42 536.97 247.41 574.9 209.48 585.02 199.36"/><path class="cls-11" d="M727.54-64.33l-12.8,12.72.08.07L641.33,21.88l.07.07L623,40.33l-.08-.07-48.05,48v101l-50.51-50.44L506,120.36l-6.85-6.84a35.69,35.69,0,0,1,0-50.43L664.31-102l37.86-37.78,28.34,28.34A35.84,35.84,0,0,1,727.54-64.33Z"/><path class="cls-12" d="M904.72,468.54l-25.3,25.3-25.21-25.3-85.84-85.83-48,48V931L585,795.65V199.36L574.9,189.25V88.3L904.72,418.12A35.69,35.69,0,0,1,904.72,468.54Z"/><polygon class="cls-13" points="879.49 589.86 879.49 994.02 848.48 963 800.43 915.02 750 864.52 720.32 834.84 720.32 430.76 806.16 516.6 879.49 589.86"/><path class="cls-14" d="M805.92-89.62V223.29l-5.49-5.49L750,167.3l-79-79L728.8,30.51l34.06-34-.07-.07,12.79-12.8A103.3,103.3,0,0,0,805.92-89.62Z"/><path class="cls-15" d="M1056.82,121.1a103.26,103.26,0,0,1-30.35,73.27l-12.77,12.78-48-48,12.77-12.78a35.79,35.79,0,0,0,3-47.1L953,70.83l-37.82,37.82L867.14,60.6,953-25.27l78.67,78.67A103.39,103.39,0,0,1,1056.82,121.1Z"/><path class="cls-16" d="M1056.82,121.1V335.57l-43.12,43.12V207.15l12.77-12.78A103.26,103.26,0,0,0,1056.82,121.1Z"/><polygon class="cls-17" points="915.19 108.64 915.19 294.63 914.85 294.95 867.14 247.24 867.14 60.6 915.19 108.64"/><polygon class="cls-18" points="1013.7 207.15 1013.7 378.69 1012.86 379.53 965.67 332.35 965.67 159.13 1013.7 207.15"/><polygon class="cls-19" points="953.01 70.83 953.01 258.57 950.13 261.32 915.19 294.63 915.19 108.64 953.01 70.83"/><path class="cls-20" d="M978.44,146.34l-12.77,12.78V276.86L953,264.19V70.83l28.42,28.41A35.79,35.79,0,0,1,978.44,146.34Z"/><path class="cls-21" d="M390.05,249.89,358,282l-48,48L236.64,403.3,163.37,330a103.64,103.64,0,0,1,0-146.58l80.13-80.13,48.05,48.05-32.1,32.1-48,48a35.72,35.72,0,0,0,0,50.49l25.24,25.24L342,201.85Z"/><path class="cls-22" d="M236.64,403.3V703.45l-2.45,2L133,607.63V256.75A103.31,103.31,0,0,0,163.37,330Z"/><path class="cls-23" d="M291.55,151.38v101l-54.91,54.91L211.4,282a35.72,35.72,0,0,1,0-50.49l48-48Z"/><polygon class="cls-24" points="390.05 249.89 390.05 578.9 236.64 703.45 236.64 403.3 309.92 330.01 357.96 281.98 390.05 249.89"/></g></g></svg>